<svg width="38" height="37" viewBox="0 0 38 37" fill="none" xmlns="http://www.w3.org/2000/svg">
<path d="M33.5668 9.17728C33.8143 9.08745 33.9916 9.41468 33.7793 9.56653C27.1708 14.2525 18.966 16.9708 10.1285 16.8382C8.97668 16.8211 6.71036 16.6436 6.71036 16.6436C6.01185 16.5901 3.62071 16.5366 2.74484 16.0512C2.72732 16.0426 2.7098 16.0362 2.69229 16.0276C1.55365 15.478 0.868279 14.6631 0.763174 13.7328C0.548585 11.8293 2.87622 10.0392 5.95054 9.73762C6.42789 9.69057 6.89867 9.68416 7.35632 9.71196C8.66356 9.73762 9.35988 10.2659 10.3299 10.5354C13.1064 11.3096 16.0603 11.5684 19.0711 11.6154C24.1753 11.6903 29.0692 10.822 33.5668 9.17728Z" fill="#BFCC94"/>
<path d="M28.9008 5.38103C28.9008 6.21299 28.4256 7.03854 27.541 7.72935C27.068 8.09721 26.3366 8.5271 25.879 8.64901C25.4213 8.77091 25.0754 8.7538 24.6484 8.79444C24.2214 8.83507 22.8813 8.94629 21.9857 8.97837C21.5981 8.99334 21.2084 9.00403 20.8186 9.00617C20.6916 9.00831 20.5668 9.00831 20.4398 9.00831C15.2021 9.00831 10.2008 8.0245 5.62877 6.23866C5.41199 6.15311 5.50396 5.83658 5.73607 5.87294C6.83529 6.04831 7.96517 6.14028 9.11913 6.14028C14.4948 6.14028 16.1458 5.24201 19.0778 3.67004C19.5048 3.44334 19.923 3.19952 20.3281 2.94502C20.3369 2.9386 20.3456 2.93432 20.3544 2.93004C21.0814 2.60923 21.9222 2.38039 22.8288 2.27773C24.3177 2.11091 25.7673 2.30767 26.9059 2.83166C28.0621 3.36421 28.765 4.16837 28.8854 5.09658C28.892 5.19068 28.9008 5.28479 28.9008 5.38103Z" fill="#BFCC94"/>
<path d="M36.9925 18.0124C37.067 18.8401 36.6816 19.7041 35.8867 20.4655C35.3984 20.9317 34.7897 21.3338 34.0978 21.6461C34.0868 21.6503 34.078 21.6546 34.0671 21.6589C33.7168 21.7915 33.3642 21.922 33.0073 22.0439C30.0293 23.0833 26.8696 23.772 23.5763 24.0585C15.03 24.8007 6.88434 22.7154 0.11164 18.5941C-0.120467 18.4529 0.0481386 18.1065 0.306522 18.1877C5.05814 19.6913 10.1864 20.3051 15.4657 19.8474C19.8801 19.4646 24.0602 18.3588 27.8834 16.6628C28.617 16.3377 29.3396 15.9913 30.0446 15.6234H30.0468C30.2965 15.5486 30.5527 15.4822 30.8176 15.4288C32.2475 15.1379 33.6708 15.2106 34.8225 15.6362C35.9918 16.0683 36.7473 16.8083 36.9465 17.7258C36.9684 17.8242 36.9838 17.9183 36.9925 18.0124Z" fill="#BFCC94"/>
<path d="M35.2179 24.1313C35.4303 24.0436 35.6011 24.3216 35.4215 24.4628C28.8612 29.5914 20.5251 32.6648 11.4664 32.6648C10.8051 32.6648 10.146 32.6477 9.49129 32.6156C7.92128 32.5407 6.52864 32.4124 5.72722 32.2477C5.71408 32.2456 5.70313 32.2413 5.69218 32.237C5.56737 32.19 5.44694 32.1387 5.3287 32.0831C4.19663 31.5505 3.50907 30.7463 3.39083 29.8181C3.27258 28.8899 3.74118 27.9532 4.70683 27.1832C5.65715 26.424 6.98629 25.9128 8.44462 25.746C8.83657 25.7011 9.22634 25.684 9.60953 25.6904C9.61829 25.6904 9.62705 25.6904 9.63362 25.6925C10.6562 25.7973 11.624 26.1438 12.6182 26.3919C15.0246 26.9972 17.5756 27.1127 20.1551 27.1127C25.4957 27.1127 30.5889 26.0497 35.2179 24.1313Z" fill="#BFCC94"/>
<path d="M33.3349 29.8567C33.2845 29.9208 33.2319 29.985 33.1794 30.047C31.478 32.1109 29.3365 33.8133 26.895 35.0153C26.8293 35.0474 26.7636 35.0794 26.6979 35.1115C24.1732 36.3199 21.3354 37 18.3399 37C16.1261 37 13.9999 36.63 12.0226 35.9456C17.475 35.5521 22.5616 34.241 27.1183 31.7452C27.8563 31.3409 29.2861 30.4619 29.2861 30.4619C29.2861 30.4619 29.2883 30.4619 29.2905 30.4598C29.8226 30.2737 30.4007 30.1368 31.0116 30.0662C31.7977 29.9743 32.6188 29.7305 33.3349 29.8567Z" fill="#BFCC94"/>
<path d="M20.2208 0.0898266C20.0106 0.545376 19.6646 0.979538 19.1938 1.37092C18.8763 1.51422 18.5545 1.64896 18.2282 1.77301C17.2494 2.14728 16.2312 2.44243 15.1802 2.65202C14.7641 2.73757 14.3437 2.80601 13.9189 2.86162C13.0978 2.97069 12.2569 3.0263 11.4051 3.0263C10.3607 3.0263 9.3337 2.94289 8.33521 2.78035C9.07313 2.33335 9.8439 1.93341 10.6453 1.58694C10.7176 1.55486 10.7898 1.52491 10.8621 1.49497C13.1613 0.532543 15.6882 0 18.3399 0C18.8939 0 19.4435 0.023526 19.9865 0.0684393C20.0632 0.0748555 20.142 0.0812717 20.2208 0.0898266Z" fill="#BFCC94"/>
</svg>
